<svg id="svg" version="1.1" xmlns="http://www.w3.org/2000/svg" xmlns:xlink="http://www.w3.org/1999/xlink" width="400" height="400" viewBox="0, 0, 400,400"><g id="svgg"><path id="path0" d="M193.200 200.000 L 193.200 307.200 224.200 307.200 L 255.200 307.200 255.200 269.177 L 255.200 231.153 256.500 229.515 C 258.993 226.373,260.526 225.082,260.987 225.737 C 261.820 226.920,262.453 227.852,264.017 230.200 C 264.896 231.520,265.796 232.870,266.017 233.200 C 266.238 233.530,267.138 234.880,268.017 236.200 C 268.896 237.520,269.796 238.870,270.017 239.200 C 270.238 239.530,271.138 240.880,272.017 242.200 C 272.896 243.520,273.796 244.870,274.017 245.200 C 274.238 245.530,275.138 246.880,276.017 248.200 C 276.896 249.520,277.796 250.870,278.017 251.200 C 278.238 251.530,279.138 252.880,280.017 254.200 C 280.896 255.520,281.796 256.870,282.017 257.200 C 282.238 257.530,283.138 258.880,284.017 260.200 C 284.896 261.520,285.796 262.870,286.017 263.200 C 286.238 263.530,287.138 264.880,288.017 266.200 C 288.896 267.520,289.796 268.870,290.017 269.200 C 290.238 269.530,291.138 270.880,292.017 272.200 C 292.896 273.520,293.796 274.870,294.017 275.200 C 294.238 275.530,295.138 276.880,296.017 278.200 C 296.896 279.520,297.796 280.870,298.017 281.200 C 298.238 281.530,299.138 282.880,300.017 284.200 C 300.896 285.520,301.796 286.870,302.017 287.200 C 302.238 287.530,303.138 288.880,304.017 290.200 C 304.896 291.520,305.796 292.870,306.017 293.200 C 306.238 293.530,307.138 294.880,308.017 296.200 C 308.896 297.520,309.796 298.870,310.017 299.200 C 310.238 299.530,311.132 300.880,312.004 302.200 C 312.876 303.520,313.748 304.791,313.941 305.025 C 314.134 305.259,314.502 305.844,314.760 306.325 L 315.228 307.200 350.014 307.200 C 384.590 307.200,384.800 307.195,384.800 306.396 C 384.800 305.954,384.440 305.284,384.000 304.907 C 383.560 304.530,383.200 304.078,383.200 303.901 C 383.200 303.510,380.645 299.645,379.805 298.766 C 379.472 298.418,379.200 298.009,379.200 297.857 C 379.200 297.500,376.594 293.592,375.805 292.766 C 375.472 292.418,375.200 292.009,375.200 291.857 C 375.200 291.500,372.594 287.592,371.805 286.766 C 371.472 286.418,371.200 286.009,371.200 285.857 C 371.200 285.500,368.594 281.592,367.805 280.766 C 367.472 280.418,367.200 280.009,367.200 279.857 C 367.200 279.500,364.594 275.592,363.805 274.766 C 363.472 274.418,363.200 274.009,363.200 273.857 C 363.200 273.500,360.594 269.592,359.805 268.766 C 359.472 268.418,359.200 268.009,359.200 267.857 C 359.200 267.500,356.594 263.592,355.805 262.766 C 355.472 262.418,355.200 262.009,355.200 261.857 C 355.200 261.500,352.594 257.592,351.805 256.766 C 351.472 256.418,351.200 256.009,351.200 255.857 C 351.200 255.500,348.594 251.592,347.805 250.766 C 347.472 250.418,347.200 250.009,347.200 249.857 C 347.200 249.500,344.594 245.592,343.805 244.766 C 343.472 244.418,343.200 244.009,343.200 243.857 C 343.200 243.500,340.594 239.592,339.805 238.766 C 339.472 238.418,339.200 238.009,339.200 237.857 C 339.200 237.500,336.594 233.592,335.805 232.766 C 335.472 232.418,335.200 232.009,335.200 231.857 C 335.200 231.500,332.594 227.592,331.805 226.766 C 331.472 226.418,331.200 226.009,331.200 225.857 C 331.200 225.500,328.594 221.592,327.805 220.766 C 327.472 220.418,327.200 220.009,327.200 219.857 C 327.200 219.500,324.594 215.592,323.805 214.766 C 323.472 214.418,323.200 214.009,323.200 213.857 C 323.200 213.500,320.594 209.592,319.805 208.766 C 319.472 208.418,319.200 208.009,319.200 207.857 C 319.200 207.500,316.594 203.592,315.805 202.766 C 315.472 202.418,315.200 202.009,315.200 201.857 C 315.200 201.500,312.594 197.592,311.805 196.766 C 311.472 196.418,311.200 196.009,311.200 195.857 C 311.200 195.500,308.594 191.592,307.805 190.766 C 307.472 190.418,307.200 190.009,307.200 189.857 C 307.200 189.500,304.594 185.592,303.805 184.766 C 303.472 184.418,303.200 184.009,303.200 183.857 C 303.200 183.500,300.594 179.592,299.805 178.766 C 299.472 178.418,299.200 178.009,299.200 177.857 C 299.200 177.500,296.594 173.592,295.805 172.766 C 295.472 172.418,295.200 172.009,295.200 171.857 C 295.200 171.500,292.594 167.592,291.805 166.766 C 291.472 166.418,291.200 166.009,291.200 165.857 C 291.200 165.500,288.594 161.592,287.805 160.766 C 287.472 160.418,287.200 160.009,287.200 159.857 C 287.200 159.500,284.594 155.592,283.805 154.766 C 283.472 154.418,283.200 154.009,283.200 153.857 C 283.200 153.500,280.594 149.592,279.805 148.766 C 279.472 148.418,279.200 148.009,279.200 147.857 C 279.200 147.559,276.725 143.777,275.901 142.815 C 275.626 142.493,275.215 141.864,274.990 141.418 C 274.049 139.557,272.629 140.476,268.219 145.800 C 267.490 146.680,266.288 148.041,265.547 148.824 C 264.806 149.608,263.120 151.476,261.800 152.977 C 260.480 154.478,258.455 156.717,257.300 157.952 L 255.200 160.197 255.200 126.498 L 255.200 92.800 224.200 92.800 L 193.200 92.800 193.200 200.000 M313.084 95.300 C 311.813 96.675,310.066 98.610,309.202 99.600 C 306.611 102.569,305.542 103.767,302.400 107.218 C 300.750 109.030,299.188 110.814,298.930 111.182 C 298.671 111.549,297.681 112.681,296.730 113.697 C 295.778 114.714,294.242 116.412,293.316 117.472 C 290.543 120.646,289.542 121.767,286.400 125.218 C 284.750 127.030,283.162 128.852,282.871 129.265 C 282.580 129.679,281.725 130.617,280.971 131.349 C 279.685 132.598,279.211 133.600,279.906 133.600 C 280.074 133.600,280.523 134.320,280.904 135.200 C 281.286 136.080,281.745 136.800,281.925 136.800 C 282.105 136.800,282.552 137.430,282.919 138.200 C 283.287 138.970,283.726 139.600,283.896 139.600 C 284.066 139.600,284.457 140.185,284.765 140.900 C 285.073 141.615,285.569 142.470,285.868 142.800 C 286.655 143.670,289.200 147.532,289.200 147.857 C 289.200 148.009,289.477 148.418,289.815 148.766 C 290.153 149.115,290.932 150.210,291.545 151.200 C 292.727 153.108,293.815 154.770,294.800 156.174 C 295.130 156.644,295.760 157.629,296.200 158.364 C 296.640 159.099,297.405 160.199,297.900 160.808 C 298.395 161.417,298.800 162.027,298.800 162.162 C 298.800 162.298,299.565 163.505,300.500 164.843 C 302.144 167.198,302.740 168.105,304.740 171.300 C 305.921 173.187,306.665 173.187,308.323 171.300 C 311.579 167.592,313.123 165.855,314.800 164.014 C 318.130 160.357,319.801 158.271,319.690 157.904 C 319.630 157.704,319.757 157.650,319.973 157.783 C 320.188 157.916,320.665 157.567,321.032 157.007 C 321.399 156.447,322.496 155.136,323.469 154.094 C 324.441 153.052,326.042 151.300,327.025 150.200 C 328.008 149.100,329.665 147.262,330.706 146.116 C 331.748 144.970,333.028 143.530,333.550 142.916 C 334.073 142.302,335.215 140.990,336.088 140.000 C 336.962 139.010,338.424 137.350,339.338 136.312 C 340.252 135.274,341.900 133.435,343.000 132.227 C 344.100 131.018,345.841 129.078,346.869 127.915 C 347.897 126.752,349.697 124.748,350.869 123.461 C 352.041 122.175,353.130 120.895,353.288 120.618 C 353.540 120.176,355.391 118.114,358.033 115.332 C 358.487 114.854,358.854 114.314,358.850 114.132 C 358.846 113.949,359.283 113.569,359.821 113.287 C 360.360 113.005,360.800 112.606,360.800 112.400 C 360.800 112.194,361.655 111.127,362.700 110.029 C 363.745 108.930,365.028 107.530,365.550 106.916 C 366.073 106.302,367.215 104.990,368.088 104.000 C 368.962 103.010,370.424 101.350,371.338 100.312 C 372.252 99.274,373.945 97.429,375.100 96.212 C 378.637 92.486,381.287 92.800,346.297 92.800 L 315.395 92.800 313.084 95.300 M60.800 104.655 C 58.483 104.993,55.371 105.711,55.000 105.992 C 54.780 106.159,53.880 106.522,53.000 106.798 C 52.120 107.075,51.130 107.527,50.800 107.802 C 50.470 108.078,49.605 108.605,48.879 108.973 C 48.152 109.341,47.252 109.903,46.879 110.222 C 44.751 112.041,42.429 114.399,41.388 115.800 C 40.735 116.680,39.990 117.623,39.732 117.896 C 39.475 118.169,39.056 119.024,38.801 119.796 C 38.546 120.568,38.199 121.200,38.030 121.200 C 37.709 121.200,36.400 124.904,36.400 125.813 C 36.400 126.099,36.230 126.393,36.023 126.467 C 34.882 126.870,34.817 142.015,35.953 142.791 C 36.122 142.906,36.494 143.900,36.781 145.000 C 37.068 146.100,37.729 147.671,38.251 148.491 C 38.773 149.312,39.200 150.154,39.200 150.363 C 39.200 150.572,39.432 150.981,39.716 151.271 C 40.000 151.562,40.544 152.250,40.924 152.800 C 43.047 155.872,48.246 160.260,50.900 161.219 C 51.725 161.517,52.400 161.897,52.400 162.064 C 52.400 162.231,53.120 162.584,54.000 162.847 L 55.600 163.327 55.600 200.048 L 55.600 236.769 54.000 237.200 C 53.120 237.437,52.400 237.775,52.400 237.951 C 52.400 238.128,51.661 238.516,50.757 238.814 C 49.854 239.112,49.025 239.591,48.915 239.878 C 48.805 240.165,48.474 240.400,48.180 240.400 C 47.886 240.400,47.362 240.805,47.015 241.300 C 46.668 241.795,46.277 242.133,46.145 242.051 C 44.793 241.212,37.274 252.032,36.636 255.735 C 36.528 256.359,36.253 257.095,36.023 257.372 C 35.044 258.551,34.647 271.200,35.588 271.200 C 35.739 271.200,35.782 271.740,35.685 272.400 C 35.588 273.060,35.690 273.600,35.910 273.600 C 36.131 273.600,36.435 274.275,36.586 275.100 C 36.906 276.842,39.266 281.656,40.655 283.400 C 42.720 285.992,45.824 289.191,46.280 289.195 C 46.544 289.198,46.904 289.439,47.080 289.731 C 47.256 290.023,48.027 290.608,48.793 291.031 C 49.559 291.454,50.404 292.002,50.671 292.249 C 50.937 292.496,51.976 292.941,52.978 293.237 C 53.980 293.533,54.800 293.899,54.800 294.050 C 54.800 295.868,74.170 295.836,75.600 294.016 C 75.710 293.876,76.575 293.534,77.523 293.258 C 78.471 292.981,79.596 292.404,80.023 291.977 C 80.450 291.550,80.800 291.294,80.800 291.409 C 80.800 291.737,82.963 290.278,83.320 289.710 C 83.496 289.429,83.857 289.200,84.122 289.200 C 84.524 289.200,87.384 286.328,89.778 283.521 C 90.634 282.519,91.668 280.402,91.310 280.387 C 91.140 280.380,91.303 280.144,91.673 279.863 C 92.043 279.582,92.645 278.552,93.010 277.576 C 93.375 276.599,93.834 275.440,94.030 275.000 C 95.577 271.520,95.578 257.903,94.032 255.800 C 93.870 255.580,93.405 254.500,92.998 253.400 C 92.591 252.300,92.020 251.163,91.729 250.872 C 91.438 250.581,91.198 250.131,91.196 249.871 C 91.192 249.392,89.266 246.776,87.314 244.600 C 85.942 243.070,82.612 240.400,82.076 240.400 C 81.851 240.400,81.607 240.229,81.533 240.020 C 81.460 239.810,80.355 239.113,79.079 238.471 L 76.757 237.302 78.992 235.310 C 80.260 234.180,81.956 233.101,82.913 232.815 C 83.841 232.538,84.696 232.159,84.814 231.972 C 84.931 231.785,86.821 231.320,89.014 230.937 C 91.206 230.555,93.090 230.118,93.200 229.966 C 93.406 229.680,107.137 228.400,109.993 228.400 C 110.877 228.400,111.600 228.220,111.600 228.000 C 111.600 227.780,112.357 227.600,113.283 227.600 C 115.547 227.600,124.949 226.377,125.200 226.049 C 125.310 225.906,127.017 225.463,128.994 225.065 C 130.971 224.667,132.681 224.215,132.794 224.060 C 132.907 223.905,134.035 223.459,135.300 223.069 C 136.565 222.678,137.600 222.224,137.600 222.059 C 137.600 221.893,138.500 221.434,139.600 221.039 C 140.700 220.643,141.600 220.199,141.600 220.051 C 141.600 219.903,142.243 219.436,143.028 219.013 C 146.107 217.355,152.538 210.315,153.371 207.691 C 153.527 207.201,153.786 206.800,153.947 206.800 C 154.108 206.800,154.478 206.125,154.769 205.300 C 155.060 204.475,155.619 203.080,156.010 202.200 C 156.401 201.320,156.940 199.160,157.207 197.400 C 157.474 195.640,157.850 193.840,158.041 193.400 C 158.233 192.960,158.437 191.354,158.495 189.832 C 158.597 187.146,158.636 187.052,159.800 186.672 C 160.460 186.456,161.090 186.167,161.200 186.029 C 161.310 185.891,162.165 185.441,163.100 185.028 C 164.035 184.616,164.800 184.138,164.800 183.966 C 164.800 183.794,165.189 183.530,165.665 183.379 C 166.789 183.023,173.023 176.789,173.379 175.665 C 173.530 175.189,173.794 174.800,173.966 174.800 C 174.138 174.800,174.616 174.035,175.028 173.100 C 175.441 172.165,175.913 171.302,176.078 171.183 C 176.243 171.064,176.698 169.714,177.089 168.183 C 177.480 166.652,177.940 165.296,178.111 165.170 C 178.551 164.843,178.983 155.838,178.602 154.942 C 178.428 154.534,178.327 153.681,178.378 153.046 C 178.430 152.411,178.321 151.781,178.136 151.646 C 177.951 151.511,177.480 150.148,177.089 148.617 C 176.698 147.086,176.228 145.736,176.043 145.617 C 175.859 145.498,175.594 145.035,175.455 144.588 C 175.156 143.629,172.939 140.161,171.800 138.871 C 171.083 138.058,170.466 137.462,167.385 134.600 C 166.911 134.160,165.911 133.450,165.162 133.022 C 164.413 132.595,163.599 132.046,163.353 131.804 C 163.107 131.561,162.117 131.109,161.153 130.798 C 160.189 130.488,159.310 130.107,159.199 129.953 C 158.301 128.702,146.582 127.951,141.773 128.837 C 138.692 129.405,132.439 132.137,130.400 133.806 C 126.111 137.317,121.096 143.705,121.916 144.613 C 122.072 144.786,121.980 144.802,121.712 144.648 C 121.395 144.466,121.126 144.760,120.948 145.484 C 120.796 146.098,120.352 147.230,119.962 148.000 C 118.026 151.814,118.040 167.259,119.982 168.800 C 120.120 168.910,120.488 169.789,120.798 170.753 C 121.109 171.717,121.551 172.710,121.781 172.960 C 122.012 173.210,122.544 174.028,122.964 174.778 C 124.426 177.386,129.335 182.438,131.214 183.270 C 131.866 183.559,132.400 183.917,132.400 184.066 C 132.400 184.456,136.973 186.687,138.424 187.005 C 139.487 187.239,139.621 187.413,139.449 188.337 C 139.339 188.922,139.131 190.480,138.985 191.800 C 138.533 195.884,134.177 203.200,132.196 203.200 C 131.936 203.200,131.417 203.539,131.042 203.954 C 130.667 204.368,129.559 204.932,128.580 205.206 C 127.601 205.480,126.800 205.838,126.800 206.002 C 126.800 206.166,125.135 206.607,123.100 206.982 C 121.065 207.357,119.040 207.826,118.600 208.023 C 117.754 208.403,105.855 209.600,102.925 209.600 C 101.976 209.600,101.200 209.780,101.200 210.000 C 101.200 210.220,100.452 210.400,99.539 210.400 C 97.150 210.400,86.637 211.640,86.400 211.950 C 86.290 212.094,84.583 212.537,82.606 212.935 C 80.629 213.333,78.919 213.789,78.806 213.949 C 78.619 214.213,75.658 215.200,75.054 215.200 C 74.914 215.200,74.800 203.512,74.800 189.227 L 74.800 163.254 75.700 162.999 C 77.136 162.591,81.600 160.377,81.600 160.073 C 81.600 159.920,82.095 159.575,82.700 159.305 C 85.097 158.236,90.593 152.142,91.371 149.691 C 91.527 149.201,91.786 148.800,91.948 148.800 C 92.110 148.800,92.574 147.855,92.980 146.700 C 93.386 145.545,93.855 144.420,94.022 144.200 C 95.543 142.197,95.538 126.964,94.016 125.000 C 93.845 124.780,93.403 123.671,93.032 122.535 C 92.662 121.399,92.072 120.360,91.722 120.225 C 91.372 120.091,91.195 119.872,91.329 119.738 C 91.875 119.192,89.275 115.620,86.202 112.694 C 83.437 110.061,83.028 109.737,81.521 108.973 C 80.795 108.605,79.930 108.078,79.600 107.802 C 79.270 107.527,78.280 107.075,77.400 106.798 C 76.520 106.522,75.610 106.146,75.378 105.963 C 74.108 104.964,64.556 104.107,60.800 104.655 M67.853 130.033 C 68.594 130.491,69.200 131.018,69.200 131.204 C 69.200 131.390,69.515 131.858,69.900 132.243 C 70.652 132.995,70.834 136.257,70.151 136.739 C 69.948 136.882,69.483 137.470,69.118 138.044 C 68.426 139.134,65.690 140.124,64.453 139.732 C 62.129 138.995,61.533 138.557,60.609 136.905 C 59.587 135.076,59.275 133.200,59.992 133.200 C 60.208 133.200,60.500 132.742,60.640 132.182 C 61.270 129.672,65.318 128.466,67.853 130.033 M151.487 153.965 C 154.549 156.158,154.183 161.463,150.861 163.039 C 145.656 165.509,140.706 159.279,144.500 155.033 C 146.474 152.824,149.293 152.393,151.487 153.965 M68.020 261.010 C 68.669 261.346,69.200 261.783,69.200 261.982 C 69.200 262.180,69.498 262.641,69.862 263.005 C 71.579 264.722,69.978 269.420,67.335 270.425 C 64.583 271.471,60.400 269.666,60.400 267.433 C 60.400 267.085,60.220 266.800,60.000 266.800 C 58.665 266.800,60.730 261.910,62.472 260.943 C 63.744 260.238,66.592 260.272,68.020 261.010 " stroke="none" fill="#4c6cf4" fill-rule="evenodd"></path><path id="path1" d="" stroke="none" fill="#506cf4" fill-rule="evenodd"></path><path id="path2" d="" stroke="none" fill="#506cf4" fill-rule="evenodd"></path><path id="path3" d="" stroke="none" fill="#506cf4" fill-rule="evenodd"></path><path id="path4" d="" stroke="none" fill="#506cf4" fill-rule="evenodd"></path></g></svg>